<svg xmlns="http://www.w3.org/2000/svg" xmlns:xlink="http://www.w3.org/1999/xlink" width="100" zoomAndPan="magnify" viewBox="0 0 75 74.999997" height="100" preserveAspectRatio="xMidYMid meet" version="1.0"><defs><clipPath id="2211b183d7"><path d="M 62 32 L 75 32 L 75 46.253906 L 62 46.253906 Z M 62 32 " clip-rule="nonzero"/></clipPath><clipPath id="8c407e11c4"><path d="M 0 25.253906 L 59 25.253906 L 59 46.253906 L 0 46.253906 Z M 0 25.253906 " clip-rule="nonzero"/></clipPath><clipPath id="aa06bd67d4"><path d="M 16 32 L 55 32 L 55 46.253906 L 16 46.253906 Z M 16 32 " clip-rule="nonzero"/></clipPath></defs><g clip-path="url(#2211b183d7)"><path fill="#83cd29" d="M 68.636719 32.6875 C 68.457031 32.6875 68.28125 32.722656 68.125 32.8125 L 63.207031 35.652344 C 62.886719 35.835938 62.695312 36.183594 62.695312 36.550781 L 62.695312 42.21875 C 62.695312 42.589844 62.886719 42.933594 63.207031 43.117188 L 64.492188 43.859375 C 65.113281 44.167969 65.34375 44.160156 65.628906 44.160156 C 66.550781 44.160156 67.078125 43.601562 67.078125 42.625 L 67.078125 37.03125 C 67.078125 36.953125 67.011719 36.894531 66.933594 36.894531 L 66.316406 36.894531 C 66.238281 36.894531 66.171875 36.953125 66.171875 37.03125 L 66.171875 42.628906 C 66.171875 43.0625 65.722656 43.496094 64.992188 43.128906 L 63.65625 42.347656 C 63.609375 42.320312 63.574219 42.273438 63.574219 42.222656 L 63.574219 36.550781 C 63.574219 36.496094 63.609375 36.441406 63.65625 36.414062 L 68.5625 33.585938 C 68.609375 33.558594 68.664062 33.558594 68.710938 33.585938 L 73.617188 36.414062 C 73.664062 36.445312 73.703125 36.496094 73.703125 36.550781 L 73.703125 42.222656 C 73.703125 42.277344 73.675781 42.332031 73.628906 42.359375 L 68.710938 45.1875 C 68.667969 45.210938 68.609375 45.210938 68.5625 45.1875 L 67.300781 44.4375 C 67.261719 44.414062 67.210938 44.414062 67.175781 44.4375 C 66.828125 44.632812 66.761719 44.65625 66.433594 44.769531 C 66.355469 44.796875 66.230469 44.839844 66.476562 44.980469 L 68.125 45.953125 C 68.28125 46.042969 68.457031 46.085938 68.636719 46.085938 C 68.820312 46.085938 68.992188 46.042969 69.148438 45.953125 L 74.066406 43.121094 C 74.386719 42.9375 74.578125 42.589844 74.578125 42.222656 L 74.578125 36.554688 C 74.578125 36.183594 74.386719 35.839844 74.066406 35.65625 L 69.148438 32.816406 C 68.996094 32.726562 68.820312 32.6875 68.636719 32.6875 Z M 69.953125 36.738281 C 68.550781 36.738281 67.71875 37.335938 67.71875 38.324219 C 67.71875 39.398438 68.542969 39.695312 69.890625 39.828125 C 71.496094 39.988281 71.621094 40.222656 71.621094 40.539062 C 71.621094 41.089844 71.183594 41.324219 70.148438 41.324219 C 68.851562 41.324219 68.566406 40.996094 68.46875 40.351562 C 68.457031 40.28125 68.402344 40.226562 68.332031 40.226562 L 67.695312 40.226562 C 67.597656 40.226562 67.550781 40.277344 67.546875 40.371094 C 67.546875 41.199219 68 42.175781 70.148438 42.175781 C 71.703125 42.175781 72.601562 41.566406 72.601562 40.496094 C 72.601562 39.4375 71.878906 39.152344 70.367188 38.949219 C 68.84375 38.746094 68.695312 38.648438 68.695312 38.292969 C 68.695312 37.996094 68.820312 37.601562 69.949219 37.601562 C 70.960938 37.601562 71.332031 37.820312 71.484375 38.5 C 71.5 38.566406 71.554688 38.617188 71.621094 38.617188 L 72.257812 38.617188 C 72.296875 38.617188 72.335938 38.59375 72.363281 38.566406 C 72.390625 38.535156 72.410156 38.5 72.40625 38.460938 C 72.308594 37.289062 71.527344 36.738281 69.953125 36.738281 Z M 69.953125 36.738281 " fill-opacity="1" fill-rule="nonzero"/></g><g clip-path="url(#8c407e11c4)"><path fill="#404137" d="M 39.722656 25.253906 C 39.664062 25.253906 39.613281 25.269531 39.566406 25.296875 C 39.460938 25.355469 39.410156 25.445312 39.410156 25.566406 L 39.410156 33.554688 C 39.410156 33.632812 39.371094 33.703125 39.304688 33.742188 C 39.230469 33.785156 39.15625 33.785156 39.085938 33.742188 L 37.777344 32.992188 C 37.570312 32.871094 37.363281 32.871094 37.152344 32.992188 L 31.941406 36 C 31.746094 36.109375 31.628906 36.328125 31.628906 36.550781 L 31.628906 42.566406 C 31.628906 42.808594 31.734375 42.988281 31.941406 43.109375 L 37.152344 46.117188 C 37.363281 46.238281 37.570312 46.238281 37.78125 46.117188 L 42.988281 43.109375 C 43.199219 42.988281 43.304688 42.808594 43.304688 42.566406 L 43.304688 27.570312 C 43.304688 27.34375 43.179688 27.128906 42.980469 27.019531 L 39.878906 25.285156 C 39.828125 25.257812 39.777344 25.253906 39.722656 25.253906 Z M 6.203125 32.761719 C 6.101562 32.765625 6.007812 32.78125 5.921875 32.835938 L 0.710938 35.84375 C 0.5 35.960938 0.394531 36.144531 0.398438 36.386719 L 0.40625 44.457031 C 0.40625 44.570312 0.464844 44.671875 0.5625 44.726562 C 0.660156 44.785156 0.78125 44.785156 0.878906 44.726562 L 3.96875 42.953125 C 4.164062 42.835938 4.292969 42.632812 4.292969 42.410156 L 4.292969 38.640625 C 4.292969 38.414062 4.410156 38.210938 4.605469 38.097656 L 5.921875 37.335938 C 6.015625 37.277344 6.121094 37.25 6.234375 37.25 C 6.347656 37.25 6.449219 37.277344 6.546875 37.335938 L 7.863281 38.097656 C 8.058594 38.207031 8.175781 38.414062 8.175781 38.640625 L 8.175781 42.410156 C 8.175781 42.632812 8.304688 42.835938 8.5 42.953125 L 11.589844 44.726562 C 11.6875 44.785156 11.808594 44.785156 11.902344 44.726562 C 12 44.671875 12.058594 44.566406 12.058594 44.457031 L 12.070312 36.382812 C 12.070312 36.140625 11.96875 35.960938 11.757812 35.839844 L 6.546875 32.835938 C 6.457031 32.785156 6.363281 32.765625 6.265625 32.761719 Z M 53.023438 32.835938 C 52.914062 32.835938 52.808594 32.863281 52.710938 32.917969 L 47.5 35.925781 C 47.304688 36.039062 47.1875 36.242188 47.1875 36.46875 L 47.1875 42.484375 C 47.1875 42.710938 47.3125 42.914062 47.511719 43.027344 L 52.679688 45.972656 C 52.871094 46.082031 53.101562 46.089844 53.296875 45.980469 L 56.429688 44.238281 C 56.527344 44.183594 56.59375 44.082031 56.59375 43.96875 C 56.59375 43.855469 56.535156 43.75 56.4375 43.695312 L 51.195312 40.6875 C 51.097656 40.632812 51.027344 40.519531 51.027344 40.40625 L 51.027344 38.523438 C 51.027344 38.414062 51.097656 38.308594 51.195312 38.253906 L 52.824219 37.3125 C 52.921875 37.257812 53.039062 37.257812 53.136719 37.3125 L 54.769531 38.253906 C 54.875 38.3125 54.929688 38.40625 54.925781 38.523438 L 54.925781 40.007812 C 54.925781 40.128906 54.980469 40.21875 55.085938 40.28125 C 55.183594 40.335938 55.300781 40.335938 55.398438 40.28125 L 58.519531 38.460938 C 58.714844 38.351562 58.832031 38.144531 58.832031 37.917969 L 58.832031 36.46875 C 58.832031 36.226562 58.730469 36.046875 58.519531 35.925781 L 53.339844 32.917969 C 53.242188 32.863281 53.140625 32.835938 53.027344 32.835938 Z M 37.445312 37.324219 C 37.472656 37.324219 37.5 37.332031 37.527344 37.347656 L 39.3125 38.378906 C 39.363281 38.40625 39.398438 38.460938 39.398438 38.515625 L 39.398438 40.582031 C 39.398438 40.640625 39.363281 40.691406 39.3125 40.71875 L 37.527344 41.753906 C 37.480469 41.78125 37.421875 41.78125 37.371094 41.753906 L 35.585938 40.71875 C 35.535156 40.691406 35.503906 40.640625 35.503906 40.582031 L 35.503906 38.515625 C 35.503906 38.460938 35.539062 38.410156 35.585938 38.378906 L 37.371094 37.347656 C 37.394531 37.332031 37.417969 37.324219 37.445312 37.324219 Z M 37.445312 37.324219 " fill-opacity="1" fill-rule="nonzero"/></g><g clip-path="url(#aa06bd67d4)"><path fill="#83cd29" d="M 21.855469 32.804688 C 21.742188 32.804688 21.636719 32.832031 21.539062 32.886719 L 16.332031 35.882812 C 16.136719 35.996094 16.015625 36.210938 16.015625 36.4375 L 16.015625 42.453125 C 16.015625 42.691406 16.121094 42.875 16.332031 42.996094 L 21.539062 46.003906 C 21.75 46.125 21.957031 46.125 22.167969 46.003906 L 27.378906 42.996094 C 27.585938 42.875 27.691406 42.691406 27.691406 42.453125 L 27.691406 36.4375 C 27.691406 36.210938 27.574219 35.996094 27.378906 35.882812 L 22.167969 32.886719 C 22.070312 32.832031 21.964844 32.804688 21.855469 32.804688 Z M 53.015625 38.171875 C 52.992188 38.171875 52.96875 38.171875 52.953125 38.179688 L 51.949219 38.765625 C 51.90625 38.789062 51.886719 38.824219 51.886719 38.871094 L 51.886719 40.019531 C 51.886719 40.0625 51.910156 40.101562 51.949219 40.125 L 52.953125 40.699219 C 52.988281 40.722656 53.027344 40.722656 53.066406 40.699219 L 54.066406 40.125 C 54.105469 40.101562 54.132812 40.0625 54.132812 40.019531 L 54.132812 38.871094 C 54.132812 38.828125 54.105469 38.789062 54.066406 38.765625 L 53.066406 38.179688 C 53.046875 38.167969 53.035156 38.171875 53.015625 38.171875 Z M 53.015625 38.171875 " fill-opacity="1" fill-rule="nonzero"/></g></svg>