<svg xmlns="http://www.w3.org/2000/svg" xmlns:xlink="http://www.w3.org/1999/xlink" width="250" zoomAndPan="magnify" viewBox="0 0 187.5 187.499992" height="250" preserveAspectRatio="xMidYMid meet" version="1.0"><defs><clipPath id="487ccc0f18"><path d="M 0 62.964844 L 147 62.964844 L 147 115.328125 L 0 115.328125 Z M 0 62.964844 " clip-rule="nonzero"/></clipPath></defs><path fill="#ffffff" d="M 0 0 L 187 0 L 187 187 L 0 187 Z M 0 0 " fill-opacity="1" fill-rule="nonzero"/><path fill="#ffffff" d="M 0 0 L 187 0 L 187 187 L 0 187 Z M 0 0 " fill-opacity="1" fill-rule="nonzero"/><path fill="#83cd29" d="M 171.132812 81.5 C 170.683594 81.5 170.246094 81.59375 169.855469 81.8125 L 157.59375 88.894531 C 156.800781 89.351562 156.320312 90.214844 156.320312 91.132812 L 156.320312 105.269531 C 156.320312 106.1875 156.800781 107.050781 157.59375 107.507812 L 160.796875 109.355469 C 162.351562 110.121094 162.925781 110.109375 163.636719 110.109375 C 165.9375 110.109375 167.253906 108.710938 167.253906 106.28125 L 167.253906 92.332031 C 167.253906 92.136719 167.082031 91.996094 166.890625 91.996094 L 165.351562 91.996094 C 165.15625 91.996094 164.988281 92.140625 164.988281 92.332031 L 164.988281 106.289062 C 164.988281 107.367188 163.867188 108.449219 162.046875 107.539062 L 158.71875 105.585938 C 158.601562 105.523438 158.507812 105.40625 158.507812 105.273438 L 158.507812 91.136719 C 158.507812 91 158.597656 90.863281 158.71875 90.796875 L 170.953125 83.742188 C 171.070312 83.675781 171.207031 83.675781 171.320312 83.742188 L 183.554688 90.796875 C 183.671875 90.867188 183.765625 90.996094 183.765625 91.136719 L 183.765625 105.273438 C 183.765625 105.410156 183.695312 105.546875 183.582031 105.613281 L 171.320312 112.667969 C 171.210938 112.730469 171.066406 112.730469 170.957031 112.667969 L 167.804688 110.792969 C 167.710938 110.738281 167.582031 110.742188 167.492188 110.792969 C 166.621094 111.285156 166.460938 111.34375 165.644531 111.625 C 165.441406 111.695312 165.136719 111.804688 165.75 112.148438 L 169.863281 114.574219 C 170.253906 114.800781 170.691406 114.910156 171.136719 114.910156 C 171.59375 114.910156 172.023438 114.800781 172.414062 114.574219 L 184.675781 107.515625 C 185.46875 107.054688 185.953125 106.195312 185.953125 105.277344 L 185.953125 91.140625 C 185.953125 90.222656 185.46875 89.359375 184.675781 88.898438 L 172.414062 81.820312 C 172.03125 81.597656 171.589844 81.507812 171.136719 81.507812 Z M 174.414062 91.601562 C 170.921875 91.601562 168.84375 93.089844 168.84375 95.558594 C 168.84375 98.238281 170.90625 98.976562 174.257812 99.308594 C 178.265625 99.699219 178.578125 100.289062 178.578125 101.078125 C 178.578125 102.449219 177.488281 103.03125 174.910156 103.03125 C 171.667969 103.03125 170.957031 102.222656 170.71875 100.605469 C 170.6875 100.433594 170.554688 100.292969 170.378906 100.292969 L 168.785156 100.292969 C 168.6875 100.296875 168.601562 100.332031 168.53125 100.402344 C 168.460938 100.472656 168.425781 100.558594 168.421875 100.660156 C 168.421875 102.722656 169.542969 105.164062 174.90625 105.164062 C 178.785156 105.164062 181.023438 103.644531 181.023438 100.972656 C 181.023438 98.328125 179.214844 97.617188 175.453125 97.117188 C 171.652344 96.609375 171.285156 96.367188 171.285156 95.476562 C 171.285156 94.742188 171.59375 93.757812 174.410156 93.757812 C 176.925781 93.757812 177.855469 94.300781 178.238281 95.996094 C 178.269531 96.15625 178.410156 96.289062 178.578125 96.289062 L 180.167969 96.289062 C 180.265625 96.289062 180.359375 96.226562 180.429688 96.15625 C 180.496094 96.082031 180.542969 95.996094 180.535156 95.894531 C 180.289062 92.976562 178.339844 91.601562 174.414062 91.601562 Z M 174.414062 91.601562 " fill-opacity="1" fill-rule="nonzero"/><g clip-path="url(#487ccc0f18)"><path fill="#404137" d="M 99.039062 62.964844 C 98.898438 62.964844 98.769531 63 98.648438 63.070312 C 98.390625 63.222656 98.261719 63.449219 98.257812 63.746094 L 98.257812 83.664062 C 98.257812 83.859375 98.167969 84.035156 98 84.132812 C 97.816406 84.238281 97.632812 84.238281 97.453125 84.132812 L 94.195312 82.257812 C 93.957031 82.121094 93.695312 82.050781 93.414062 82.050781 C 93.136719 82.050781 92.875 82.121094 92.632812 82.257812 L 79.644531 89.757812 C 79.160156 90.039062 78.863281 90.578125 78.863281 91.136719 L 78.863281 106.132812 C 78.863281 106.414062 78.929688 106.671875 79.070312 106.914062 C 79.210938 107.15625 79.402344 107.347656 79.644531 107.488281 L 92.636719 114.984375 C 92.875 115.125 93.136719 115.195312 93.417969 115.195312 C 93.695312 115.195312 93.957031 115.125 94.199219 114.984375 L 107.1875 107.488281 C 107.429688 107.347656 107.621094 107.15625 107.761719 106.914062 C 107.902344 106.671875 107.972656 106.414062 107.96875 106.132812 L 107.96875 68.746094 C 107.96875 68.175781 107.660156 67.644531 107.164062 67.367188 L 99.429688 63.042969 C 99.308594 62.976562 99.175781 62.964844 99.039062 62.964844 Z M 15.464844 81.6875 C 15.214844 81.695312 14.984375 81.738281 14.761719 81.867188 L 1.769531 89.367188 C 1.527344 89.503906 1.335938 89.695312 1.195312 89.9375 C 1.058594 90.179688 0.988281 90.441406 0.988281 90.71875 L 1.015625 110.847656 C 1.015625 111.125 1.160156 111.386719 1.40625 111.523438 C 1.648438 111.667969 1.945312 111.667969 2.1875 111.523438 L 9.894531 107.097656 C 10.382812 106.808594 10.699219 106.300781 10.699219 105.742188 L 10.699219 96.34375 C 10.699219 95.78125 10.996094 95.269531 11.480469 94.992188 L 14.761719 93.089844 C 15.003906 92.949219 15.265625 92.878906 15.542969 92.882812 C 15.824219 92.878906 16.082031 92.949219 16.324219 93.089844 L 19.605469 94.988281 C 20.089844 95.269531 20.382812 95.78125 20.382812 96.34375 L 20.382812 105.742188 C 20.382812 106.300781 20.710938 106.808594 21.191406 107.09375 L 28.898438 111.519531 C 29.140625 111.664062 29.4375 111.664062 29.679688 111.519531 C 29.917969 111.382812 30.070312 111.125 30.070312 110.84375 L 30.097656 90.71875 C 30.097656 90.4375 30.027344 90.179688 29.890625 89.9375 C 29.75 89.695312 29.558594 89.503906 29.316406 89.363281 L 16.324219 81.871094 C 16.105469 81.742188 15.871094 81.699219 15.621094 81.6875 Z M 132.207031 81.867188 C 131.929688 81.867188 131.667969 81.9375 131.425781 82.078125 L 118.433594 89.574219 C 117.949219 89.855469 117.652344 90.367188 117.652344 90.929688 L 117.652344 105.925781 C 117.652344 106.488281 117.972656 107 118.460938 107.277344 L 131.347656 114.625 C 131.824219 114.894531 132.402344 114.917969 132.882812 114.648438 L 140.695312 110.300781 C 140.941406 110.164062 141.109375 109.90625 141.109375 109.625 C 141.113281 109.34375 140.964844 109.089844 140.71875 108.949219 L 127.648438 101.449219 C 127.40625 101.308594 127.234375 101.027344 127.234375 100.746094 L 127.234375 96.058594 C 127.234375 95.777344 127.40625 95.519531 127.648438 95.378906 L 131.710938 93.035156 C 131.953125 92.898438 132.25 92.898438 132.492188 93.035156 L 136.5625 95.378906 C 136.824219 95.53125 136.953125 95.757812 136.953125 96.058594 L 136.953125 99.753906 C 136.953125 100.054688 137.082031 100.28125 137.34375 100.429688 C 137.589844 100.570312 137.882812 100.570312 138.125 100.429688 L 145.910156 95.902344 C 146.394531 95.621094 146.691406 95.105469 146.691406 94.546875 L 146.691406 90.929688 C 146.691406 90.648438 146.621094 90.390625 146.480469 90.148438 C 146.34375 89.90625 146.152344 89.714844 145.910156 89.574219 L 132.996094 82.078125 C 132.753906 81.9375 132.496094 81.867188 132.214844 81.867188 Z M 93.363281 93.066406 C 93.4375 93.0625 93.503906 93.082031 93.570312 93.117188 L 98.023438 95.695312 C 98.144531 95.761719 98.230469 95.894531 98.230469 96.03125 L 98.230469 101.1875 C 98.230469 101.328125 98.144531 101.457031 98.023438 101.527344 L 93.570312 104.101562 C 93.449219 104.171875 93.300781 104.171875 93.179688 104.101562 L 88.726562 101.527344 C 88.605469 101.457031 88.519531 101.328125 88.519531 101.1875 L 88.519531 96.035156 C 88.519531 95.894531 88.605469 95.765625 88.726562 95.695312 L 93.179688 93.117188 C 93.242188 93.082031 93.292969 93.066406 93.363281 93.066406 Z M 93.363281 93.066406 " fill-opacity="1" fill-rule="nonzero"/></g><path fill="#83cd29" d="M 54.492188 81.789062 C 54.210938 81.789062 53.949219 81.859375 53.710938 82 L 40.71875 89.472656 C 40.230469 89.75 39.9375 90.289062 39.9375 90.851562 L 39.9375 105.847656 C 39.9375 106.125 40.003906 106.386719 40.144531 106.628906 C 40.285156 106.871094 40.476562 107.0625 40.71875 107.199219 L 53.710938 114.699219 C 53.949219 114.839844 54.210938 114.910156 54.492188 114.910156 C 54.769531 114.910156 55.03125 114.839844 55.269531 114.699219 L 68.261719 107.199219 C 68.503906 107.0625 68.695312 106.871094 68.835938 106.628906 C 68.976562 106.386719 69.046875 106.125 69.042969 105.847656 L 69.042969 90.851562 C 69.042969 90.289062 68.75 89.75 68.261719 89.472656 L 55.269531 82 C 55.03125 81.859375 54.769531 81.789062 54.488281 81.789062 Z M 132.183594 95.171875 C 132.128906 95.171875 132.074219 95.171875 132.027344 95.199219 L 129.527344 96.65625 C 129.425781 96.714844 129.371094 96.800781 129.371094 96.917969 L 129.371094 99.78125 C 129.371094 99.886719 129.433594 99.988281 129.527344 100.042969 L 132.027344 101.472656 C 132.121094 101.53125 132.214844 101.53125 132.3125 101.472656 L 134.8125 100.042969 C 134.902344 99.988281 134.96875 99.886719 134.96875 99.78125 L 134.96875 96.917969 C 134.96875 96.808594 134.90625 96.710938 134.8125 96.65625 L 132.3125 95.199219 C 132.265625 95.171875 132.234375 95.171875 132.183594 95.171875 Z M 132.183594 95.171875 " fill-opacity="1" fill-rule="nonzero"/></svg>