<svg xmlns="http://www.w3.org/2000/svg" xmlns:xlink="http://www.w3.org/1999/xlink" width="100" zoomAndPan="magnify" viewBox="0 0 75 74.999997" height="100" preserveAspectRatio="xMidYMid meet" version="1.0"><defs><clipPath id="69cddbd794"><path d="M 0 4.160156 L 75 4.160156 L 75 70.910156 L 0 70.910156 Z M 0 4.160156 " clip-rule="nonzero"/></clipPath></defs><g clip-path="url(#69cddbd794)"><path fill="#61dafb" d="M 74.9375 37.542969 C 74.9375 32.578125 68.726562 27.871094 59.203125 24.953125 C 61.398438 15.234375 60.421875 7.503906 56.121094 5.03125 C 55.128906 4.449219 53.96875 4.175781 52.699219 4.175781 L 52.699219 7.582031 C 53.402344 7.582031 53.96875 7.71875 54.441406 7.980469 C 56.515625 9.171875 57.417969 13.707031 56.714844 19.542969 C 56.546875 20.980469 56.273438 22.492188 55.9375 24.035156 C 52.945312 23.300781 49.679688 22.738281 46.246094 22.371094 C 44.183594 19.542969 42.046875 16.976562 39.894531 14.730469 C 44.871094 10.101562 49.542969 7.566406 52.714844 7.566406 L 52.714844 4.160156 C 48.519531 4.160156 43.023438 7.152344 37.46875 12.347656 C 31.914062 7.183594 26.417969 4.21875 22.222656 4.21875 L 22.222656 7.628906 C 25.382812 7.628906 30.066406 10.148438 35.042969 14.746094 C 32.90625 16.992188 30.769531 19.542969 28.738281 22.371094 C 25.289062 22.738281 22.023438 23.300781 19.03125 24.050781 C 18.683594 22.523438 18.421875 21.042969 18.238281 19.621094 C 17.523438 13.785156 18.40625 9.246094 20.46875 8.039062 C 20.925781 7.765625 21.519531 7.640625 22.222656 7.640625 L 22.222656 4.234375 C 20.941406 4.234375 19.78125 4.511719 18.773438 5.089844 C 14.484375 7.566406 13.523438 15.28125 15.738281 24.96875 C 6.242188 27.902344 0.0625 32.589844 0.0625 37.542969 C 0.0625 42.507812 6.273438 47.210938 15.796875 50.132812 C 13.601562 59.847656 14.578125 67.578125 18.878906 70.054688 C 19.871094 70.632812 21.03125 70.910156 22.3125 70.910156 C 26.511719 70.910156 32.003906 67.914062 37.5625 62.71875 C 43.117188 67.882812 48.609375 70.847656 52.808594 70.847656 C 54.089844 70.847656 55.25 70.574219 56.257812 69.992188 C 60.546875 67.515625 61.507812 59.800781 59.292969 50.117188 C 68.757812 47.199219 74.9375 42.492188 74.9375 37.542969 Z M 55.066406 27.351562 C 54.5 29.320312 53.800781 31.355469 53.007812 33.386719 C 52.378906 32.164062 51.722656 30.941406 51.007812 29.71875 C 50.304688 28.496094 49.558594 27.304688 48.808594 26.144531 C 50.976562 26.464844 53.066406 26.863281 55.066406 27.351562 Z M 48.078125 43.621094 C 46.886719 45.683594 45.664062 47.640625 44.398438 49.457031 C 42.125 49.65625 39.820312 49.765625 37.5 49.765625 C 35.195312 49.765625 32.890625 49.65625 30.632812 49.472656 C 29.367188 47.65625 28.128906 45.714844 26.9375 43.667969 C 25.777344 41.667969 24.726562 39.636719 23.765625 37.585938 C 24.710938 35.539062 25.777344 33.492188 26.921875 31.492188 C 28.113281 29.429688 29.335938 27.472656 30.601562 25.65625 C 32.875 25.457031 35.179688 25.351562 37.5 25.351562 C 39.804688 25.351562 42.109375 25.457031 44.367188 25.640625 C 45.632812 27.457031 46.871094 29.398438 48.0625 31.445312 C 49.222656 33.445312 50.273438 35.480469 51.234375 37.527344 C 50.273438 39.574219 49.222656 41.621094 48.078125 43.621094 Z M 53.007812 41.636719 C 53.832031 43.683594 54.53125 45.730469 55.113281 47.71875 C 53.113281 48.207031 51.007812 48.617188 48.824219 48.9375 C 49.570312 47.761719 50.320312 46.554688 51.023438 45.316406 C 51.722656 44.097656 52.378906 42.859375 53.007812 41.636719 Z M 37.53125 57.9375 C 36.109375 56.472656 34.691406 54.835938 33.289062 53.050781 C 34.660156 53.109375 36.066406 53.15625 37.484375 53.15625 C 38.917969 53.15625 40.339844 53.125 41.726562 53.050781 C 40.355469 54.835938 38.933594 56.472656 37.53125 57.9375 Z M 26.175781 48.9375 C 24.007812 48.617188 21.917969 48.222656 19.917969 47.730469 C 20.484375 45.761719 21.183594 43.730469 21.980469 41.699219 C 22.605469 42.917969 23.261719 44.140625 23.976562 45.363281 C 24.695312 46.585938 25.429688 47.777344 26.175781 48.9375 Z M 37.453125 17.144531 C 38.875 18.613281 40.292969 20.246094 41.695312 22.035156 C 40.324219 21.972656 38.917969 21.925781 37.5 21.925781 C 36.066406 21.925781 34.644531 21.957031 33.257812 22.035156 C 34.628906 20.246094 36.050781 18.613281 37.453125 17.144531 Z M 26.160156 26.144531 C 25.414062 27.320312 24.664062 28.527344 23.960938 29.765625 C 23.261719 30.988281 22.605469 32.210938 21.980469 33.433594 C 21.15625 31.382812 20.453125 29.335938 19.871094 27.351562 C 21.871094 26.878906 23.976562 26.464844 26.160156 26.144531 Z M 12.347656 45.273438 C 6.945312 42.964844 3.449219 39.941406 3.449219 37.542969 C 3.449219 35.144531 6.945312 32.101562 12.347656 29.8125 C 13.660156 29.246094 15.09375 28.742188 16.574219 28.269531 C 17.445312 31.261719 18.589844 34.378906 20.007812 37.574219 C 18.605469 40.75 17.476562 43.851562 16.621094 46.832031 C 15.109375 46.355469 13.675781 45.835938 12.347656 45.273438 Z M 20.558594 67.105469 C 18.484375 65.914062 17.582031 61.375 18.285156 55.539062 C 18.453125 54.101562 18.726562 52.589844 19.0625 51.046875 C 22.054688 51.78125 25.320312 52.347656 28.753906 52.710938 C 30.816406 55.539062 32.953125 58.105469 35.105469 60.351562 C 30.128906 64.980469 25.457031 67.515625 22.285156 67.515625 C 21.597656 67.503906 21.015625 67.363281 20.558594 67.105469 Z M 56.761719 55.464844 C 57.476562 61.300781 56.59375 65.835938 54.53125 67.042969 C 54.074219 67.320312 53.480469 67.441406 52.777344 67.441406 C 49.617188 67.441406 44.933594 64.921875 39.957031 60.320312 C 42.09375 58.074219 44.230469 55.523438 46.261719 52.699219 C 49.710938 52.332031 52.976562 51.765625 55.96875 51.015625 C 56.316406 52.558594 56.59375 54.042969 56.761719 55.464844 Z M 62.636719 45.273438 C 61.324219 45.835938 59.890625 46.34375 58.410156 46.816406 C 57.539062 43.820312 56.394531 40.703125 54.976562 37.511719 C 56.378906 34.332031 57.507812 31.230469 58.363281 28.253906 C 59.875 28.726562 61.308594 29.246094 62.652344 29.8125 C 68.054688 32.117188 71.550781 35.144531 71.550781 37.542969 C 71.535156 39.941406 68.039062 42.980469 62.636719 45.273438 Z M 62.636719 45.273438 " fill-opacity="1" fill-rule="nonzero"/></g><path fill="#61dafb" d="M 44.460938 37.542969 C 44.460938 38 44.414062 38.453125 44.324219 38.902344 C 44.234375 39.351562 44.105469 39.789062 43.929688 40.214844 C 43.753906 40.636719 43.539062 41.039062 43.285156 41.421875 C 43.03125 41.800781 42.742188 42.15625 42.417969 42.480469 C 42.09375 42.804688 41.742188 43.09375 41.359375 43.347656 C 40.980469 43.601562 40.578125 43.816406 40.152344 43.992188 C 39.730469 44.167969 39.292969 44.300781 38.84375 44.390625 C 38.394531 44.480469 37.941406 44.523438 37.484375 44.523438 C 37.027344 44.523438 36.574219 44.480469 36.125 44.390625 C 35.675781 44.300781 35.238281 44.167969 34.816406 43.992188 C 34.390625 43.816406 33.992188 43.601562 33.609375 43.347656 C 33.230469 43.09375 32.875 42.804688 32.554688 42.480469 C 32.230469 42.15625 31.941406 41.800781 31.683594 41.421875 C 31.429688 41.039062 31.214844 40.636719 31.039062 40.214844 C 30.867188 39.789062 30.734375 39.351562 30.644531 38.902344 C 30.554688 38.453125 30.511719 38 30.511719 37.542969 C 30.511719 37.082031 30.554688 36.628906 30.644531 36.179688 C 30.734375 35.730469 30.867188 35.292969 31.039062 34.871094 C 31.214844 34.445312 31.429688 34.042969 31.683594 33.664062 C 31.941406 33.28125 32.230469 32.929688 32.554688 32.605469 C 32.875 32.28125 33.230469 31.992188 33.609375 31.734375 C 33.992188 31.480469 34.390625 31.265625 34.816406 31.089844 C 35.238281 30.914062 35.675781 30.785156 36.125 30.695312 C 36.574219 30.605469 37.027344 30.558594 37.484375 30.558594 C 37.941406 30.558594 38.394531 30.605469 38.84375 30.695312 C 39.292969 30.785156 39.730469 30.914062 40.152344 31.089844 C 40.578125 31.265625 40.980469 31.480469 41.359375 31.734375 C 41.742188 31.992188 42.09375 32.28125 42.417969 32.605469 C 42.742188 32.929688 43.03125 33.28125 43.285156 33.664062 C 43.539062 34.042969 43.753906 34.445312 43.929688 34.871094 C 44.105469 35.292969 44.234375 35.730469 44.324219 36.179688 C 44.414062 36.628906 44.460938 37.082031 44.460938 37.542969 Z M 44.460938 37.542969 " fill-opacity="1" fill-rule="nonzero"/></svg>